<svg width="21" height="14" viewBox="0 0 21 14" fill="none" xmlns="http://www.w3.org/2000/svg">
<path d="M20.9844 12.2353V6.7188C20.9844 6.44447 20.8754 6.18138 20.6814 5.98741C20.4874 5.79343 20.2244 5.68445 19.95 5.68445C19.6757 5.68445 19.4126 5.79343 19.2186 5.98741C19.0247 6.18138 18.9157 6.44447 18.9157 6.7188V9.73564L12.4071 3.22616C12.311 3.12973 12.1968 3.05322 12.0711 3.00101C11.9453 2.94881 11.8105 2.92194 11.6744 2.92194C11.5383 2.92194 11.4035 2.94881 11.2777 3.00101C11.152 3.05322 11.0378 3.12973 10.9417 3.22616L8.22745 5.94304L2.75318 0.470491C2.55886 0.276177 2.29532 0.167013 2.02051 0.167013C1.74571 0.167013 1.48217 0.276177 1.28785 0.470491C1.09354 0.664804 0.984375 0.928351 0.984375 1.20315C0.984375 1.47795 1.09354 1.7415 1.28785 1.93581L7.49393 8.14189C7.59002 8.23832 7.7042 8.31483 7.82993 8.36703C7.95566 8.41924 8.09045 8.44611 8.22659 8.44611C8.36272 8.44611 8.49752 8.41924 8.62324 8.36703C8.74897 8.31483 8.86315 8.23832 8.95925 8.14189L11.6753 5.42587L17.4504 11.201H14.4335C14.1592 11.201 13.8961 11.3099 13.7021 11.5039C13.5082 11.6979 13.3992 11.961 13.3992 12.2353C13.3992 12.5096 13.5082 12.7727 13.7021 12.9667C13.8961 13.1607 14.1592 13.2697 14.4335 13.2697H19.95C20.2244 13.2697 20.4874 13.1607 20.6814 12.9667C20.8754 12.7727 20.9844 12.5096 20.9844 12.2353Z" fill="#DC3746"/>
</svg>
