<svg width="21" height="15" viewBox="0 0 21 15" fill="none" xmlns="http://www.w3.org/2000/svg">
<path d="M20.3438 2.02214V7.53865C20.3438 7.81297 20.2348 8.07606 20.0408 8.27004C19.8468 8.46402 19.5837 8.57299 19.3094 8.57299C19.0351 8.57299 18.772 8.46402 18.578 8.27004C18.384 8.07606 18.2751 7.81297 18.2751 7.53865V4.52181L11.7664 11.0313C11.6703 11.1277 11.5562 11.2042 11.4304 11.2564C11.3047 11.3086 11.1699 11.3355 11.0338 11.3355C10.8976 11.3355 10.7629 11.3086 10.6371 11.2564C10.5114 11.2042 10.3972 11.1277 10.3011 11.0313L7.58682 8.31441L2.11255 13.787C1.91824 13.9813 1.65469 14.0904 1.37989 14.0904C1.10509 14.0904 0.841542 13.9813 0.647228 13.787C0.452914 13.5926 0.34375 13.3291 0.34375 13.0543C0.34375 12.7795 0.452914 12.5159 0.647228 12.3216L6.8533 6.11556C6.94939 6.01913 7.06358 5.94262 7.18931 5.89042C7.31503 5.83821 7.44983 5.81134 7.58596 5.81134C7.7221 5.81134 7.85689 5.83821 7.98262 5.89042C8.10834 5.94262 8.22253 6.01913 8.31862 6.11556L11.0346 8.83158L16.8097 3.05648H13.7929C13.5186 3.05648 13.2555 2.94751 13.0615 2.75353C12.8675 2.55955 12.7586 2.29646 12.7586 2.02214C12.7586 1.74781 12.8675 1.48472 13.0615 1.29075C13.2555 1.09677 13.5186 0.987793 13.7929 0.987793H19.3094C19.5837 0.987793 19.8468 1.09677 20.0408 1.29075C20.2348 1.48472 20.3438 1.74781 20.3438 2.02214Z" fill="#009900"/>
</svg>
